{"title":"Iknari Bukkake Tai 5 (2017)[DVDRIP][.MP4]","magnet":"magnet:?xt=urn:btih:38e8f0ac12c4bafa43acabf27fec8e5a25826c69&dn=Iknari+Bukkake+Tai+5+%282017%29%5BDVDRIP%5D%5B.MP4%5D&tr=udp%3A%2F%2Ftracker.leechers-paradise.org%3A6969&tr=udp%3A%2F%2Fzer0day.ch%3A1337&tr=udp%3A%2F%2Fopen.demonii.com%3A1337&tr=udp%3A%2F%2Ftracker.coppersurfer.tk%3A6969&tr=udp%3A%2F%2Fexodus.desync.com%3A6969","uploader":"firmainko","categoryP":"porn","categoryS":"movies","size":"1081234303","seeders":"23","leechers":"29","description":"Iknari Bukkake Tai 5 (2017)[DVDRIP][.MP4]\r\n\r\nScreen:\r\n <a href=\"\nhttp://picbank.tk/share-72D5_59A3D019.html\" rel=\"nofollow\" target=\"_NEW\">\nhttp://picbank.tk/share-72D5_59A3D019.html</a>\r\n <a href=\"\nhttp://picbank.tk/share-B170_59A3D019.html\" rel=\"nofollow\" target=\"_NEW\">\nhttp://picbank.tk/share-B170_59A3D019.html</a>\r\n <a href=\"\nhttp://picbank.tk/share-2D56_59A3D019.html\" rel=\"nofollow\" target=\"_NEW\">\nhttp://picbank.tk/share-2D56_59A3D019.html</a>\r\n <a href=\"\nhttp://picbank.tk/share-A5F5_59A3D019.html\" rel=\"nofollow\" target=\"_NEW\">\nhttp://picbank.tk/share-A5F5_59A3D019.html</a>\r\n\r\nCOVER:\r\n <a href=\"\nhttp://picbank.tk/share-4472_59A3D019.html\" rel=\"nofollow\" target=\"_NEW\">\nhttp://picbank.tk/share-4472_59A3D019.html</a>\r\n\r\nFile Size: 1,00 GB | Resolution: 1280x720 | Duration: 00:33:51 | Format: mp4\r\n\r\nOverview: Getting cum loads dumped into her hungry hole is something this delectable Asian is always happy to do. See her get on the bed and happily await these two men&apos;s cocks that get stuffed right into her mouth as she gazes up through the hairy bushes in her face. Then she gets spit roasted so they can jizz in her hole in, &quot;Iknari Bukkake Tai 5.&quot;\r\n\r\nIn Series: Bang! Japan\r\nFrom: Dreamroom Productions\r\nReleased on: Mar 6th, 2017\r\nCategories: 18+ Teen, Asian, Facial, Cumshot, Hairy, Threesome, Creampie, Double, Blowjob, Brunette, Internal, Cumshot\r\n\r\nFormat : MPEG-4\r\nFormat profile : Base Media\r\nCodec ID : isom\r\nFile size : 1.01 GiB\r\nDuration : 33mn 51s\r\nOverall bit rate : 4 257 Kbps\r\nWriting application : Lavf57.21.101\r\n\r\nVideo\r\nID : 1\r\nFormat : AVC\r\nFormat/Info : Advanced Video Codec\r\nFormat profile : <a href=\"/cdn-cgi/l/email-protection\" class=\"__cf_email__\" data-cfemail=\"c489a5adaa8488f7eaf5\">[email&#xA0;protected]</a>\r\nFormat settings, CABAC : Yes\r\nFormat settings, ReFrames : 3 frames\r\nCodec ID : avc1\r\nCodec ID/Info : Advanced Video Coding\r\nDuration : 33mn 51s\r\nBit rate : 4 122 Kbps\r\nWidth : 1 280 pixels\r\nHeight : 720 pixels\r\nDisplay aspect ratio : 16:9\r\nFrame rate mode : Constant\r\nFrame rate : 30.000 fps\r\nColor space : YUV\r\nChroma subsampling : 4:2:0\r\nBit depth : 8 bits\r\nScan type : Progressive\r\nBits/(Pixel*Frame) : 0.149\r\nStream size : 998 MiB (97%)\r\nWriting library : Zencoder Video Encoding System\r\n\r\nAudio\r\nID : 2\r\nFormat : AAC\r\nFormat/Info : Advanced Audio Codec\r\nFormat profile : LC\r\nCodec ID : 40\r\nDuration : 33mn 51s\r\nBit rate mode : Constant\r\nBit rate : 128 Kbps\r\nChannel(s) : 2 channels\r\nChannel positions : Front: L R\r\nSampling rate : 48.0 KHz\r\nCompression mode : Lossy\r\nStream size : 31.0 MiB (3%)","last_updated":"2017-08-28T13:07:45.584Z","parsed":{"xt":"urn:btih:38e8f0ac12c4bafa43acabf27fec8e5a25826c69","dn":"Iknari Bukkake Tai 5 (2017)[DVDRIP][.MP4]","tr":["udp://exodus.desync.com:6969","udp://open.demonii.com:1337","udp://tracker.coppersurfer.tk:6969","udp://tracker.leechers-paradise.org:6969","udp://zer0day.ch:1337"],"infoHash":"38e8f0ac12c4bafa43acabf27fec8e5a25826c69","infoHashBuffer":{"type":"Buffer","data":[56,232,240,172,18,196,186,250,67,172,171,242,127,236,142,90,37,130,108,105]},"name":"Iknari Bukkake Tai 5 (2017)[DVDRIP][.MP4]","announce":["udp://exodus.desync.com:6969","udp://open.demonii.com:1337","udp://tracker.coppersurfer.tk:6969","udp://tracker.leechers-paradise.org:6969","udp://zer0day.ch:1337"],"urlList":[]}}